<svg viewBox="0 0 14 15" xmlns="http://www.w3.org/2000/svg"><path d="M8.47321429 8.90178571c.4464308-.4464308.66964285-.98511589.66964285-1.61607142 0-.63095554-.22321205-1.16964063-.66964285-1.61607143C8.02678348 5.22321205 7.48809839 5 6.85714286 5c-.63095554 0-1.16964063.22321205-1.61607143.66964286-.44643081.4464308-.66964286.98511589-.66964286 1.61607143 0 .63095553.22321205 1.16964062.66964286 1.61607142.4464308.44643081.98511589.66964286 1.61607143.66964286.63095553 0 1.16964062-.22321205 1.61607143-.66964286zm.875-4.10714285C10.0327415 5.47917009 10.375 6.30951893 10.375 7.28571429c0 .97619535-.3422585 1.80654419-1.02678571 2.49107142-.68452724.68452719-1.51487608 1.02678569-2.49107143 1.02678569-.97619536 0-1.8065442-.3422585-2.49107143-1.02678569-.68452723-.68452723-1.02678572-1.51487607-1.02678572-2.49107142 0-.97619536.34225849-1.8065442 1.02678572-2.49107143.68452723-.68452724 1.51487607-1.02678572 2.49107143-1.02678572.97619535 0 1.80654419.34225848 2.49107143 1.02678572zm1.75000001-1.75c.1607151.16071509.2410714.35416553.2410714.58035714 0 .22619161-.0803563.41964205-.2410714.58035714-.1607151.16071509-.3541656.24107143-.5803572.24107143s-.419642-.08035634-.5803571-.24107143c-.16071509-.16071509-.24107143-.35416553-.24107143-.58035714 0-.22619161.08035634-.41964205.24107143-.58035714.1607151-.16071509.3541655-.24107143.5803571-.24107143.2261916 0 .4196421.08035634.5803572.24107143zM7.53571429 1.66071429h-.67857143c-.04166688 0-.26934317-.00148808-.68303572-.00446429-.41369254-.00297621-.7276775-.00297621-.94196428 0-.21428679.00297621-.5014863.01190469-.86160715.02678571-.36012084.01488103-.6666654.04464264-.91964285.08928572-.25297746.04464308-.46577295.09970205-.63839286.16517857-.29762054.11904821-.55952268.29166554-.78571429.51785714-.2261916.22619161-.39880892.48809375-.51785714.78571429-.06547652.17261991-.12053549.3854154-.16517857.63839286-.04464308.25297745-.07440469.559522-.08928571.91964285-.01488103.36012085-.02380951.64732036-.02678572.86160715-.0029762.21428678-.0029762.52827174 0 .94196428.00297621.41369255.00446429.64136884.00446429.68303572 0 .04166687-.00148808.26934317-.00446429.68303571-.0029762.41369254-.0029762.7276775 0 .94196429.00297621.21428678.01190469.50148629.02678572.86160714.01488102.36012087.04464263.66666537.08928571.91964287.04464308.2529774.09970205.4657729.16517857.6383928.11904822.2976206.29166554.5595227.51785714.7857143.22619161.2261916.48809375.398809.78571429.5178572.17261991.0654765.3854154.1205355.63839286.1651785.25297745.0446431.55952201.0744047.91964285.0892858.36012085.014881.64732036.0238095.86160715.0267857.21428678.0029762.52827174.0029762.94196428 0 .41369255-.0029762.64136884-.0044643.68303572-.0044643.04166687 0 .26934317.0014881.68303571.0044643.41369255.0029762.7276775.0029762.94196429 0 .21428678-.0029762.50148629-.0119047.86160714-.0267857.36012085-.0148811.6666654-.0446427.9196429-.0892858.2529774-.044643.4657729-.099702.6383928-.1651785.2976205-.1190482.5595227-.2916656.7857143-.5178572.2261916-.2261916.3988089-.4880937.5178571-.7857143.0654766-.1726199.1205355-.3854154.1651786-.6383928.0446431-.2529775.0744047-.559522.0892857-.91964287.0148811-.36012085.0238095-.64732036.0267857-.86160714.0029762-.21428679.0029762-.52827175 0-.94196429s-.0044642-.64136884-.0044642-.68303571c0-.04166688.001488-.26934317.0044642-.68303572.0029762-.41369254.0029762-.7276775 0-.94196428-.0029762-.21428679-.0119046-.5014863-.0267857-.86160715-.014881-.36012085-.0446426-.6666654-.0892857-.91964285-.0446431-.25297746-.099702-.46577295-.1651786-.63839286-.1190482-.29762054-.2916655-.55952268-.5178571-.78571429-.2261916-.2261916-.4880938-.39880893-.7857143-.51785714-.1726199-.06547652-.3854154-.12053549-.6383928-.16517857-.2529775-.04464308-.55952205-.07440469-.9196429-.08928572-.36012085-.01488102-.64732036-.0238095-.86160714-.02678571-.21428679-.00297621-.52975982-.00148813-.94642857.00446429zm6.13392861 2.79464285c.029762.52381215.0446428 1.46725509.0446428 2.83035715 0 1.36310205-.0148808 2.306545-.0446428 2.83035711-.0595242 1.2381015-.4285681 2.1964252-1.1071429 2.875-.6785748.6785748-1.6368986 1.0476188-2.875 1.1071429-.52381214.029762-1.46725509.0446428-2.83035714.0446428-1.36310206 0-2.306545-.0148808-2.83035715-.0446428-1.23810142-.0595241-2.19642517-.4285681-2.875-1.1071429-.67857482-.6785748-1.04761875-1.6368985-1.10714285-2.875C.0148808 9.59225929 0 8.64881634 0 7.28571429c0-1.36310206.0148808-2.306545.04464286-2.83035715.0595241-1.23810143.42856803-2.19642518 1.10714285-2.875.67857483-.67857482 1.63689858-1.04761875 2.875-1.10714285C4.55059786.44345223 5.4940408.42857143 6.85714286.42857143c1.36310205 0 2.306545.0148808 2.83035714.04464286 1.2381014.0595241 2.1964252.42856803 2.875 1.10714285.6785748.67857482 1.0476187 1.63689857 1.1071429 2.875z" fill="#100B36" fill-rule="evenodd"/></svg>