<svg viewBox="0 0 15 12" xmlns="http://www.w3.org/2000/svg"><path d="M14.4642857 1.92857143c-.3988115.58333625-.8809495 1.08035509-1.4464286 1.49107143.0059525.08333375.0089286.2083325.0089286.375 0 .77381339-.1130941 1.5461271-.3392857 2.31696428-.2261916.77083719-.5699382 1.51041313-1.03125 2.21875-.4613118.70833688-1.0104135 1.33481871-1.6473214 1.87946426-.63690798.5446456-1.40475744.9791651-2.30357146 1.3035715C6.80654312 11.8377992 5.84524321 12 4.82142857 12c-1.6131033 0-3.08927902-.4315433-4.42857143-1.2946429.20833438.0238097.44047491.0357143.69642857.0357143 1.33929242 0 2.53273286-.4107101 3.58035715-1.23214283-.62500313-.01190482-1.18452134-.20386719-1.67857143-.57589286s-.83333241-.8467233-1.01785714-1.42410714c.19642955.02976206.37797535.04464286.54464285.04464286.25595366 0 .50892732-.03273777.75892857-.09821429-.66667-.13690544-1.21874781-.46874736-1.65625-.99553571-.43750218-.52678835-.65625-1.13838938-.65625-1.83482143v-.03571429c.40476393.22619161.8392834.3482142 1.30357143.36607143-.3928591-.26190607-.70535598-.60416455-.9375-1.02678571-.23214401-.42262116-.34821428-.88094991-.34821428-1.375 0-.52381214.13095107-1.00892634.39285714-1.45535714.7202417.88690919 1.59672103 1.59672352 2.62946429 2.12946428 1.03274325.53274076 2.13838696.82886875 3.31696428.88839286C7.27380929 3.88987982 7.25 3.66964393 7.25 3.45535714c0-.79762303.28124719-1.47767576.84375-2.04017857.56250281-.56250281 1.24255554-.84375 2.0401786-.84375.8333375 0 1.5357114.3035684 2.1071428.91071429.6488128-.12500063 1.2589257-.35714116 1.8303572-.69642857-.2202392.68452723-.642854 1.21428384-1.2678572 1.58928571.5535742-.05952411 1.1071401-.20833214 1.6607143-.44642857z" fill="#100B36" fill-rule="evenodd"/></svg>