<?xml version="1.0" encoding="UTF-8" standalone="no"?>
<svg width="20px" height="31px" viewBox="0 0 20 31" version="1.1" xmlns="http://www.w3.org/2000/svg" xmlns:xlink="http://www.w3.org/1999/xlink" xmlns:sketch="http://www.bohemiancoding.com/sketch/ns">
    <title>Slice 1</title>
    <description>Created with Sketch (http://www.bohemiancoding.com/sketch)</description>
    <defs cx="50%" fy="32.9626843%" cy="32.9626843%" fx="50%">
        <radialGradient r="74.3144572%" id="radialGradient-1">
            <stop stop-color="#EFEFEF" offset="0%"></stop>
            <stop stop-color="#B0B0B0" offset="100%"></stop>
        </radialGradient>
        <radialGradient r="150.873077%" id="radialGradient-2">
            <stop stop-color="#D8D8D8" offset="0%"></stop>
            <stop stop-color="#B0B0B0" offset="100%"></stop>
        </radialGradient>
        <radialGradient r="285.392547%" id="radialGradient-3">
            <stop stop-color="#D1D1D1" offset="0%"></stop>
            <stop stop-color="#B0B0B0" offset="100%"></stop>
        </radialGradient>
        <radialGradient r="147.937381%" id="radialGradient-4">
            <stop stop-color="#EFEFEF" offset="0%"></stop>
            <stop stop-color="#CACACA" offset="59.4994559%"></stop>
            <stop stop-color="#B0B0B0" offset="100%"></stop>
        </radialGradient>
        <radialGradient r="187.59203%" id="radialGradient-5">
            <stop stop-color="#EFEFEF" offset="0%"></stop>
            <stop stop-color="#B0B0B0" offset="100%"></stop>
        </radialGradient>
        <radialGradient r="277.562857%" id="radialGradient-6">
            <stop stop-color="#EFEFEF" offset="0%"></stop>
            <stop stop-color="#B0B0B0" offset="100%"></stop>
        </radialGradient>
        <radialGradient r="417.728853%" id="radialGradient-7">
            <stop stop-color="#D9D9D9" offset="0%"></stop>
            <stop stop-color="#B0B0B0" offset="100%"></stop>
        </radialGradient>
        <radialGradient r="262.690854%" id="radialGradient-8">
            <stop stop-color="#CECECE" offset="0%"></stop>
            <stop stop-color="#B0B0B0" offset="100%"></stop>
        </radialGradient>
    </defs>
    <g id="Page 1" stroke="none" stroke-width="1" fill="none" fill-rule="evenodd">
        <path d="M10.04,28.73696 C13.3758001,28.73696 16.08,22.8870054 16.08,15.67072 C16.08,8.45443455 13.3758001,2.60448 10.04,2.60448 C6.70419995,2.60448 4,8.45443455 4,15.67072 C4,22.8870054 6.70419995,28.73696 10.04,28.73696 Z M10.04,28.73696" id="Glass" stroke="#737373" stroke-width="0.25" fill-opacity="0.433938419" fill="#FFFFFF"></path>
        <path d="M3.88,20.62688 C3.88,20.62688 6.56358508,17.84517 9.52,15.4114028 C12.683585,12.8070899 16.12,10.55072 16.12,10.55072" id="Line" stroke="#737373" stroke-width="0.4" stroke-linecap="square"></path>
        <path d="M3.96,20.62688 C3.96,20.62688 6.64358508,17.84517 9.6,15.4114028 C12.763585,12.8070899 16.2,10.55072 16.2,10.55072" id="Line" stroke="#737373" stroke-width="0.4" stroke-linecap="square" transform="translate(10.080000, 15.588800) scale(-1, 1) translate(-10.080000, -15.588800) "></path>
        <path d="M17.5802034,3.99712 C17.8780302,3.99712 18.1389836,4.28187874 18.1624012,4.63314645 C18.1624012,4.63314645 19.513804,9.52791313 19.8400002,14.4209262 C20.2114027,19.9920467 19.5575988,25.5614135 19.5575988,25.5614135 C19.5810176,25.9126999 19.313348,26.19744 18.9597449,26.19744 L1.12025507,26.19744 C0.767001411,26.19744 0.499496714,25.9126813 0.52354713,25.5614135 C0.52354713,25.5614135 -0.225644313,20.0534442 0.160000013,14.4209262 C0.490808338,9.58931064 1.95645287,4.63314645 1.95645287,4.63314645 C1.98050456,4.28186009 2.24167519,3.99712 2.53979664,3.99712 L17.5802034,3.99712 Z M3.46147674,6.4640161 C3.46147674,6.4640161 2.78224299,10.9991979 2.55726803,15.09728 C2.3301388,19.2346066 2.55726803,23.3326887 2.55726803,23.3326887 C2.53796196,23.6843628 2.80435719,23.9694509 3.15176715,23.9694509 L16.9322472,23.9694509 C17.2798861,23.9694509 17.5465704,23.6844457 17.5278936,23.3326887 C17.5278936,23.3326887 17.7474816,19.232964 17.527894,15.09728 C17.3102156,10.9975553 16.6533616,6.4640161 16.6533616,6.4640161 C16.6346892,6.11234205 16.3734437,5.82725391 16.0702997,5.82725391 L4.04568599,5.82725391 C3.7423422,5.82725391 3.48078736,6.1122591 3.46147674,6.4640161 Z M3.46147674,6.4640161" id="Handle" stroke="#737373" stroke-width="0.25" fill="url(#radialGradient-1)"></path>
        <path d="M4.05703146,25.9511266 L3.68328104,28.3279134 C3.62641308,28.6895531 3.89293033,28.98272 4.27976509,28.98272 L15.7208599,28.98272 C16.1071569,28.98272 16.3804258,28.6888272 16.3314432,28.3279134 L16.0088693,25.9511266 C15.9597882,25.5894869 15.6336771,25.29632 15.2793799,25.29632 L4.80062013,25.29632 C4.4468154,25.29632 4.11378527,25.5902128 4.05703146,25.9511266 Z M4.05703146,25.9511266" id="Trunk" stroke="#737373" stroke-width="0.25" fill="url(#radialGradient-2)"></path>
        <path d="M1.78709771,29.0639562 L1.57321479,29.7206838 C1.45545951,30.0822515 1.64683132,30.37536 1.99973695,30.37536 L18.0802631,30.37536 C18.43358,30.37536 18.6156277,30.0820802 18.4870142,29.7206838 L18.2532983,29.0639562 C18.1246238,28.7023885 17.7556214,28.40928 17.4299562,28.40928 L2.59066883,28.40928 C2.26462403,28.40928 1.90479719,28.7025598 1.78709771,29.0639562 Z M1.78709771,29.0639562" id="Base" stroke="#737373" stroke-width="0.25" fill="url(#radialGradient-3)"></path>
        <path d="M4.41664448,3.01387292 L4.20366802,6.20916708 C4.17955084,6.57099804 4.44632287,6.86432 4.80062013,6.86432 L15.2793799,6.86432 C15.6331846,6.86432 15.8978432,6.57043302 15.8706065,6.20916708 L15.629706,3.01387292 C15.6024267,2.65204196 15.3095718,2.35872 14.974556,2.35872 L5.06606895,2.35872 C4.7315189,2.35872 4.440724,2.65260698 4.41664448,3.01387292 Z M4.41664448,3.01387292" id="Top" stroke="#737373" stroke-width="0.25" fill="url(#radialGradient-4)"></path>
        <path d="M7.45787743,-0.345352638 L7.26204445,0.557192638 C7.18359547,0.918744393 7.40662389,1.21184 7.75981436,1.21184 L12.2401856,1.21184 C12.5935454,1.21184 12.8242169,0.918124725 12.7556678,0.557192638 L12.5842541,-0.345352638 C12.5155873,-0.706904393 12.218083,-1 11.9200785,-1 L8.13976524,-1 C7.84161798,-1 7.53619196,-0.706284725 7.45787743,-0.345352638 Z M7.45787743,-0.345352638" id="Cap" stroke="#737373" stroke-width="0.25" fill="url(#radialGradient-5)"></path>
        <g id="Vent ring" transform="translate(5.600000, 0.966080)">
            <path d="M0.658850193,0 C0.294977279,0 0,0.2853875 0,0.647539063 L0,0.990860938 C0,1.34848689 0.298115234,1.6384 0.658850193,1.6384 L8.30114981,1.6384 C8.66502272,1.6384 8.96,1.3530125 8.96,0.990860938 L8.96,0.647539063 C8.96,0.289913113 8.66188477,0 8.30114981,0 L0.658850193,0 Z M0.658850193,0" id="Vent Ring" stroke="#737373" stroke-width="0.25" fill="url(#radialGradient-6)"></path>
            <path id="Oval 2" fill="#596450"></path>
            <path id="Oval 2" fill="#596450"></path>
            <path id="Oval 2" fill="#596450"></path>
            <path id="Oval 2" fill="#596450"></path>
            <path id="Oval 2" fill="#596450"></path>
            <path id="Oval 2" fill="#596450"></path>
            <path id="Oval 2" fill="#596450"></path>
            <path id="Oval 2" fill="#596450"></path>
            <path id="Oval 2" fill="#596450"></path>
            <path id="Oval 2" fill="#596450"></path>
        </g>
        <path d="M5.04877507,6.90444491 L4.31122493,8.29875509 C4.22770571,8.45664497 4.44632287,8.58464 4.80062013,8.58464 L15.2793799,8.58464 C15.6331846,8.58464 15.8495548,8.45639841 15.7629587,8.29875509 L14.9970413,6.90444491 C14.9103098,6.74655503 14.6052932,6.61856 14.3148658,6.61856 L5.72513419,6.61856 C5.43511058,6.61856 5.13216387,6.74680159 5.04877507,6.90444491 Z M5.04877507,6.90444491" id="Glass Top" stroke="#737373" stroke-width="0.25" fill="url(#radialGradient-7)"></path>
        <path d="M5.04877507,22.5511649 L4.31122493,23.9454751 C4.22770571,24.103365 4.44632287,24.23136 4.80062013,24.23136 L15.2793799,24.23136 C15.6331846,24.23136 15.8495548,24.1031184 15.7629587,23.9454751 L14.9970413,22.5511649 C14.9103098,22.393275 14.6052932,22.26528 14.3148658,22.26528 L5.72513419,22.26528 C5.43511058,22.26528 5.13216387,22.3935216 5.04877507,22.5511649 Z M5.04877507,22.5511649" id="Glass Bottom" stroke="#737373" stroke-width="0.25" fill="url(#radialGradient-8)" transform="translate(10.037740, 23.248320) rotate(-180.000000) translate(-10.037740, -23.248320) "></path>
    </g>
</svg>