<?xml version="1.0" encoding="UTF-8" standalone="no"?>
<svg width="32px" height="32px" viewBox="0 0 32 32" version="1.1" xmlns="http://www.w3.org/2000/svg" xmlns:xlink="http://www.w3.org/1999/xlink" xmlns:sketch="http://www.bohemiancoding.com/sketch/ns">
    <title>Slice 1</title>
    <description>Created with Sketch (http://www.bohemiancoding.com/sketch)</description>
    <defs></defs>
    <g id="Page 1" stroke="none" stroke-width="1" fill="none" fill-rule="evenodd">
        <g id="Icon" transform="translate(5.000000, 0.000000)">
            <path d="M10.04,29.73696 C13.3758001,29.73696 16.08,23.8870054 16.08,16.67072 C16.08,9.45443455 13.3758001,3.60448 10.04,3.60448 C6.70419995,3.60448 4,9.45443455 4,16.67072 C4,23.8870054 6.70419995,29.73696 10.04,29.73696 Z M10.04,29.73696" id="Glass" stroke="#596450" stroke-width="0.5" fill-opacity="0.433938419" fill="#FFFFFF"></path>
            <path d="M3.88,21.62688 C3.88,21.62688 6.56358508,18.84517 9.52,16.4114028 C12.683585,13.8070899 16.12,11.55072 16.12,11.55072" id="Line" stroke="#596450" stroke-width="0.57344" stroke-linecap="square"></path>
            <path d="M3.96,21.62688 C3.96,21.62688 6.64358508,18.84517 9.6,16.4114028 C12.763585,13.8070899 16.2,11.55072 16.2,11.55072" id="Line" stroke="#596450" stroke-width="0.57344" stroke-linecap="square" transform="translate(10.080000, 16.588800) scale(-1, 1) translate(-10.080000, -16.588800) "></path>
            <path d="M17.5802034,4.99712 C17.8780302,4.99712 18.1389836,5.28187874 18.1624012,5.63314645 C18.1624012,5.63314645 19.513804,10.5279131 19.8400002,15.4209262 C20.2114027,20.9920467 19.5575988,26.5614135 19.5575988,26.5614135 C19.5810176,26.9126999 19.313348,27.19744 18.9597449,27.19744 L1.12025507,27.19744 C0.767001411,27.19744 0.499496714,26.9126813 0.52354713,26.5614135 C0.52354713,26.5614135 -0.225644313,21.0534442 0.160000013,15.4209262 C0.490808338,10.5893106 1.95645287,5.63314645 1.95645287,5.63314645 C1.98050456,5.28186009 2.24167519,4.99712 2.53979664,4.99712 L17.5802034,4.99712 Z M3.46147674,7.4640161 C3.46147674,7.4640161 2.78224299,11.9991979 2.55726803,16.09728 C2.3301388,20.2346066 2.55726803,24.3326887 2.55726803,24.3326887 C2.53796196,24.6843628 2.80435719,24.9694509 3.15176715,24.9694509 L16.9322472,24.9694509 C17.2798861,24.9694509 17.5465704,24.6844457 17.5278936,24.3326887 C17.5278936,24.3326887 17.7474816,20.232964 17.527894,16.09728 C17.3102156,11.9975553 16.6533616,7.4640161 16.6533616,7.4640161 C16.6346892,7.11234205 16.3734437,6.82725391 16.0702997,6.82725391 L4.04568599,6.82725391 C3.7423422,6.82725391 3.48078736,7.1122591 3.46147674,7.4640161 Z M3.46147674,7.4640161" id="Handle" stroke="#596450" stroke-width="0.5" fill="#919E84"></path>
            <path d="M4.05703146,26.9511266 L3.68328104,29.3279134 C3.62641308,29.6895531 3.89293033,29.98272 4.27976509,29.98272 L15.7208599,29.98272 C16.1071569,29.98272 16.3804258,29.6888272 16.3314432,29.3279134 L16.0088693,26.9511266 C15.9597882,26.5894869 15.6336771,26.29632 15.2793799,26.29632 L4.80062013,26.29632 C4.4468154,26.29632 4.11378527,26.5902128 4.05703146,26.9511266 Z M4.05703146,26.9511266" id="Trunk" stroke="#596450" stroke-width="0.5" fill="#919E84"></path>
            <path d="M1.78709771,30.0639562 L1.57321479,30.7206838 C1.45545951,31.0822515 1.64683132,31.37536 1.99973695,31.37536 L18.0802631,31.37536 C18.43358,31.37536 18.6156277,31.0820802 18.4870142,30.7206838 L18.2532983,30.0639562 C18.1246238,29.7023885 17.7556214,29.40928 17.4299562,29.40928 L2.59066883,29.40928 C2.26462403,29.40928 1.90479719,29.7025598 1.78709771,30.0639562 Z M1.78709771,30.0639562" id="Base" stroke="#596450" stroke-width="0.5" fill="#919E84"></path>
            <path d="M4.41664448,4.01387292 L4.20366802,7.20916708 C4.17955084,7.57099804 4.44632287,7.86432 4.80062013,7.86432 L15.2793799,7.86432 C15.6331846,7.86432 15.8978432,7.57043302 15.8706065,7.20916708 L15.629706,4.01387292 C15.6024267,3.65204196 15.3095718,3.35872 14.974556,3.35872 L5.06606895,3.35872 C4.7315189,3.35872 4.440724,3.65260698 4.41664448,4.01387292 Z M4.41664448,4.01387292" id="Top" stroke="#596450" stroke-width="0.5" fill="#919E84"></path>
            <path d="M7.45787743,0.654647362 L7.26204445,1.55719264 C7.18359547,1.91874439 7.40662389,2.21184 7.75981436,2.21184 L12.2401856,2.21184 C12.5935454,2.21184 12.8242169,1.91812473 12.7556678,1.55719264 L12.5842541,0.654647362 C12.5155873,0.293095607 12.218083,0 11.9200785,0 L8.13976524,0 C7.84161798,0 7.53619196,0.293715275 7.45787743,0.654647362 Z M7.45787743,0.654647362" id="Cap" stroke="#596450" stroke-width="0.5" fill="#919E84"></path>
            <g id="Vent ring" transform="translate(5.600000, 1.966080)">
                <path d="M0.658850193,0 C0.294977279,0 0,0.2853875 0,0.647539063 L0,0.990860938 C0,1.34848689 0.298115234,1.6384 0.658850193,1.6384 L8.30114981,1.6384 C8.66502272,1.6384 8.96,1.3530125 8.96,0.990860938 L8.96,0.647539063 C8.96,0.289913113 8.66188477,0 8.30114981,0 L0.658850193,0 Z M0.658850193,0" id="Vent Ring" stroke="#596450" stroke-width="0.5" fill="#919E84"></path>
                <path id="Oval 2" fill="#596450"></path>
                <path id="Oval 2" fill="#596450"></path>
                <path id="Oval 2" fill="#596450"></path>
                <path id="Oval 2" fill="#596450"></path>
                <path id="Oval 2" fill="#596450"></path>
                <path id="Oval 2" fill="#596450"></path>
                <path id="Oval 2" fill="#596450"></path>
                <path id="Oval 2" fill="#596450"></path>
                <path id="Oval 2" fill="#596450"></path>
                <path id="Oval 2" fill="#596450"></path>
            </g>
            <path d="M5.04877507,7.90444491 L4.31122493,9.29875509 C4.22770571,9.45664497 4.44632287,9.58464 4.80062013,9.58464 L15.2793799,9.58464 C15.6331846,9.58464 15.8495548,9.45639841 15.7629587,9.29875509 L14.9970413,7.90444491 C14.9103098,7.74655503 14.6052932,7.61856 14.3148658,7.61856 L5.72513419,7.61856 C5.43511058,7.61856 5.13216387,7.74680159 5.04877507,7.90444491 Z M5.04877507,7.90444491" id="Glass Top" stroke="#596450" stroke-width="0.5" fill="#919E84"></path>
            <path d="M5.04877507,23.5511649 L4.31122493,24.9454751 C4.22770571,25.103365 4.44632287,25.23136 4.80062013,25.23136 L15.2793799,25.23136 C15.6331846,25.23136 15.8495548,25.1031184 15.7629587,24.9454751 L14.9970413,23.5511649 C14.9103098,23.393275 14.6052932,23.26528 14.3148658,23.26528 L5.72513419,23.26528 C5.43511058,23.26528 5.13216387,23.3935216 5.04877507,23.5511649 Z M5.04877507,23.5511649" id="Glass Bottom" stroke="#596450" stroke-width="0.5" fill="#919E84" transform="translate(10.037740, 24.248320) rotate(-180.000000) translate(-10.037740, -24.248320) "></path>
        </g>
    </g>
</svg>